<svg width="210" height="210" viewBox="0 0 210 210" fill="none" xmlns="http://www.w3.org/2000/svg">
<path d="M165.73 2.44923C168.18 1.33812e-05 172.67 1.33812e-05 175.119 2.44923C197.162 24.4922 209.816 54.6992 209.816 86.1309V87.7637C209.816 155.117 155.117 209.408 87.7637 209.408H86.1309C54.6992 209.408 24.9004 197.162 2.44922 175.119C5.96046e-08 172.67 5.96046e-08 168.18 2.44922 165.73L165.73 2.44923ZM170.221 16.3281L160.424 26.5332C174.711 43.2695 183.691 64.9043 183.691 88.5801C183.691 141.238 141.238 183.283 88.9883 183.283C64.9043 183.283 43.2695 174.711 26.5332 160.016L16.7363 170.221C35.5137 186.957 60.4141 196.346 86.1309 196.346H87.7637C147.77 196.346 196.754 147.77 196.754 87.7637V86.1309C196.754 60.4141 187.365 35.5137 170.221 16.3281ZM35.9219 151.035C50.209 162.873 68.5781 170.221 88.9883 170.221C133.891 170.221 170.629 133.891 170.629 88.5801C170.629 68.5781 163.281 50.209 151.035 35.9219L35.9219 151.035ZM142.463 67.7617L148.994 74.293C151.443 76.7422 151.443 81.2324 148.994 83.6816C146.545 86.1309 142.055 86.1309 139.605 83.6816L133.074 77.1504C130.625 74.7012 130.625 70.2109 133.074 67.7617C135.523 65.3125 140.014 65.3125 142.463 67.7617ZM109.807 100.418L116.338 106.949C118.787 109.398 118.787 113.889 116.338 116.338C113.889 118.787 109.398 118.787 106.949 116.338L100.418 109.807C97.9687 107.357 97.9687 102.867 100.418 100.418C102.867 97.9688 107.357 97.9688 109.807 100.418ZM145.729 103.684L152.26 110.215C154.709 112.664 154.709 117.154 152.26 119.604C149.811 122.053 145.32 122.053 142.871 119.604L136.34 113.072C133.891 110.623 133.891 106.133 136.34 103.684C138.789 101.234 143.279 101.234 145.729 103.684ZM77.1504 133.074L83.6816 139.605C86.1309 142.055 86.1309 146.545 83.6816 148.994C81.2324 151.443 76.7422 151.443 74.293 148.994L67.7617 142.463C65.3125 140.014 65.3125 135.523 67.7617 133.074C70.2109 130.625 74.7012 130.625 77.1504 133.074ZM113.072 136.34L119.604 142.871C122.053 145.32 122.053 149.811 119.604 152.26C117.154 154.709 112.664 154.709 110.215 152.26L103.684 145.729C101.234 143.279 101.234 138.789 103.684 136.34C106.133 133.891 110.623 133.891 113.072 136.34Z" fill="#B4A5C8"/>
</svg>
