<svg width="246" height="197" viewBox="0 0 246 197" fill="none" xmlns="http://www.w3.org/2000/svg">
<path d="M183.57 3.45637L193.939 24.5784H239.639C242.711 24.5784 245.783 27.6507 245.783 30.723C245.783 34.1793 242.711 36.8676 239.639 36.8676H190.482C187.794 36.8676 185.874 35.7154 184.722 33.7953L178.577 21.1221L158.991 69.8947C158.223 72.1989 156.303 73.7351 153.615 73.7351C151.31 74.1191 149.006 72.583 147.854 70.6628L131.341 36.8676H79.8796C76.4233 36.8676 73.735 34.1793 73.735 30.723C73.735 27.6507 76.4233 24.5784 79.8796 24.5784H135.181C137.485 24.5784 139.405 26.1145 140.557 28.0347L152.847 52.6131L172.432 4.22444C173.201 1.92022 175.505 0.384075 177.809 0.384075C180.113 3.8147e-05 182.417 1.53618 183.57 3.45637ZM116.747 61.4459H129.804L135.949 73.7351H116.747C113.291 73.7351 110.603 76.8074 110.603 79.8797V135.181H233.494V104.458C233.494 87.5604 219.669 73.7351 202.771 73.7351H170.896L175.889 61.4459H202.771C226.198 61.4459 245.783 81.0318 245.783 104.458V141.326V165.904V190.482C245.783 193.939 242.711 196.627 239.639 196.627C236.183 196.627 233.494 193.939 233.494 190.482V172.048H12.2892V190.482C12.2892 193.939 9.21688 196.627 6.14459 196.627C2.68826 196.627 0 193.939 0 190.482V165.904V141.326V30.723C0 27.6507 2.68826 24.5784 6.14459 24.5784C9.21688 24.5784 12.2892 27.6507 12.2892 30.723V135.181H98.3134V79.8797C98.3134 69.8947 106.378 61.4459 116.747 61.4459ZM233.494 159.759V147.47H104.458H12.2892V159.759H233.494ZM73.735 92.1688C73.735 85.6402 69.8947 79.8797 64.5182 76.4233C58.7576 72.967 51.4609 72.967 46.0844 76.4233C40.3238 79.8797 36.8675 85.6402 36.8675 92.1688C36.8675 99.0815 40.3238 104.842 46.0844 108.298C51.4609 111.755 58.7576 111.755 64.5182 108.298C69.8947 104.842 73.735 99.0815 73.735 92.1688ZM24.5783 92.1688C24.5783 81.4158 30.3389 71.4309 39.9398 65.6703C49.1567 60.2938 61.0618 60.2938 70.6627 65.6703C79.8796 71.4309 86.0242 81.4158 86.0242 92.1688C86.0242 103.306 79.8796 113.291 70.6627 119.051C61.0618 124.428 49.1567 124.428 39.9398 119.051C30.3389 113.291 24.5783 103.306 24.5783 92.1688Z" fill="#B4A5C8"/>
</svg>
