<svg width="200" height="173" viewBox="0 0 200 173" fill="none" xmlns="http://www.w3.org/2000/svg">
<path d="M95.3125 36.3281L90.625 31.25L88.6719 29.2969C78.5156 17.9688 63.2812 12.5 48.4375 15.2344C27.3438 19.1406 12.5 37.1094 12.5 58.2031V59.7656C12.5 72.2656 17.5781 84.375 26.9531 92.9688L98.8281 159.766C98.8281 160.156 99.2188 160.156 100 160.156C100.391 160.156 100.781 160.156 101.172 159.766L173.047 92.9688C182.031 84.375 187.5 72.2656 187.5 59.7656V58.2031C187.5 37.1094 172.266 19.1406 151.562 15.2344C136.328 12.5 121.094 17.9688 110.938 29.2969L109.375 31.25L104.688 36.3281C103.516 37.5 101.562 38.2812 100 38.2812C98.0469 38.2812 96.4844 37.5 95.3125 36.3281ZM108.594 14.0625C121.484 4.29688 137.5 0 153.516 3.125C180.469 7.8125 200 31.25 200 58.2031V59.7656C200 73.8281 194.531 87.1094 185.547 97.6562C184.375 99.2188 182.812 100.781 181.25 101.953L109.375 169.141C108.984 169.141 108.984 169.531 108.594 169.922C105.859 171.875 103.125 172.656 100 172.656C96.0938 172.656 92.9688 171.484 90.2344 169.141L18.3594 101.953C16.7969 100.781 15.2344 99.2188 14.0625 97.6562C5.07812 87.1094 0 73.8281 0 59.7656V58.2031C0 31.25 19.1406 7.8125 46.0938 3.125C62.1094 0 78.125 4.29688 91.0156 14.0625C93.3594 16.0156 96.0938 18.3594 98.0469 21.0938L99.6094 22.6562L101.562 21.0938C103.125 19.1406 104.688 17.1875 106.641 15.625C107.422 15.2344 108.203 14.4531 108.594 14.0625Z" fill="#B4A5C8"/>
</svg>
