<svg width="187" height="187" viewBox="0 0 187 187" fill="none" xmlns="http://www.w3.org/2000/svg">
<path d="M34.5546 4.72868C35.6458 7.63862 33.8271 10.9123 30.9172 12.0035L15.2763 18.1871C13.0938 18.9146 11.6389 21.0971 11.6389 23.6433V70.566C11.6389 96.3917 32.3722 117.125 58.1978 117.125C83.6598 117.125 104.757 96.3917 104.757 70.566V23.6433C104.757 21.0971 102.938 18.9146 100.756 18.1871L85.1148 12.0035C82.2048 10.9123 80.3861 7.63862 81.8411 4.72868C82.9323 1.81875 86.206 3.5882e-05 89.1159 1.09126L104.757 7.27488C111.668 9.82107 116.033 16.3684 116.033 23.6433L116.397 70.566C116.397 100.757 93.1171 125.855 64.0177 128.765C64.0177 154.59 84.751 175.324 110.577 175.324C136.039 175.324 157.136 154.59 157.136 128.765V93.118C146.951 90.5718 139.676 81.4783 139.676 70.566C139.676 57.835 149.861 47.2865 162.956 47.2865C175.687 47.2865 186.235 57.835 186.235 70.566C186.235 81.4783 178.596 90.5718 168.775 93.118V128.765C168.775 161.138 142.586 186.963 110.577 186.963C78.2037 186.963 52.378 161.138 52.378 128.765C22.9149 125.855 -0.000879288 100.757 -0.000879288 70.566V23.6433C-0.000879288 16.3684 4.36403 9.82107 11.2751 7.27488L26.916 1.09126C29.826 3.5882e-05 33.0996 1.81875 34.5546 4.72868ZM162.956 82.2057C169.139 82.2057 174.595 77.1134 174.595 70.566C174.595 64.3824 169.139 58.9262 162.956 58.9262C156.408 58.9262 151.316 64.3824 151.316 70.566C151.316 77.1134 156.408 82.2057 162.956 82.2057Z" fill="#B4A5C8"/>
</svg>
