<svg width="233" height="163" viewBox="0 0 233 163" fill="none" xmlns="http://www.w3.org/2000/svg">
<path d="M75.6583 11.6397H64.0186C60.7449 11.6397 58.1987 14.5496 58.1987 17.4596V40.7391V122.217V145.497C58.1987 148.77 60.7449 151.317 64.0186 151.317H75.6583C78.5683 151.317 81.4782 148.77 81.4782 145.497V81.4782V17.4596C81.4782 14.5496 78.5683 11.6397 75.6583 11.6397ZM46.559 138.949C44.7403 139.313 42.5578 139.677 40.7391 139.677H29.0994C19.2783 139.677 11.6397 132.038 11.6397 122.217V87.298H5.81987C2.54619 87.298 0 84.7519 0 81.4782C0 78.5682 2.54619 75.6583 5.81987 75.6583H11.6397V40.7391C11.6397 31.2818 19.2783 23.2794 29.0994 23.2794H40.7391C42.5578 23.2794 44.7403 23.6432 46.559 24.3707V17.4596C46.559 8.00228 54.1976 -4.3869e-05 64.0186 -4.3869e-05H75.6583C85.1156 -4.3869e-05 93.118 8.00228 93.118 17.4596V75.6583H139.677V17.4596C139.677 8.00228 147.316 -4.3869e-05 157.137 -4.3869e-05H168.776C178.234 -4.3869e-05 186.236 8.00228 186.236 17.4596V24.3707C188.055 23.6432 189.873 23.2794 192.056 23.2794H203.696C213.153 23.2794 221.155 31.2818 221.155 40.7391V75.6583H226.975C229.885 75.6583 232.795 78.5682 232.795 81.4782C232.795 84.7519 229.885 87.298 226.975 87.298H221.155V122.217C221.155 132.038 213.153 139.677 203.696 139.677H192.056C189.873 139.677 188.055 139.677 186.236 138.949V145.497C186.236 155.318 178.234 162.956 168.776 162.956H157.137C147.316 162.956 139.677 155.318 139.677 145.497V87.298H93.118V145.497C93.118 155.318 85.1156 162.956 75.6583 162.956H64.0186C54.1976 162.956 46.559 155.318 46.559 145.497V138.949ZM186.236 40.7391V122.217C186.236 125.491 188.782 128.037 192.056 128.037H203.696C206.605 128.037 209.515 125.491 209.515 122.217V81.4782V40.7391C209.515 37.8291 206.605 34.9192 203.696 34.9192H192.056C188.782 34.9192 186.236 37.8291 186.236 40.7391ZM174.596 122.217V40.7391V17.4596C174.596 14.5496 171.686 11.6397 168.776 11.6397H157.137C153.863 11.6397 151.317 14.5496 151.317 17.4596V81.4782V145.497C151.317 148.77 153.863 151.317 157.137 151.317H168.776C171.686 151.317 174.596 148.77 174.596 145.497V122.217ZM46.559 40.7391C46.559 37.8291 43.649 34.9192 40.7391 34.9192H29.0994C25.8257 34.9192 23.2795 37.8291 23.2795 40.7391V81.4782V122.217C23.2795 125.491 25.8257 128.037 29.0994 128.037H40.7391C43.649 128.037 46.559 125.491 46.559 122.217V40.7391Z" fill="#B4A5C8"/>
</svg>
