<svg width="227" height="199" viewBox="0 0 227 199" fill="none" xmlns="http://www.w3.org/2000/svg">
<path d="M14.1875 7.09375V163.156C14.1875 175.127 23.498 184.438 35.4688 184.438H219.906C223.453 184.438 227 187.984 227 191.531C227 195.521 223.453 198.625 219.906 198.625H35.4688C15.5176 198.625 0 183.107 0 163.156V7.09375C0 3.54688 3.10352 0 7.09375 0C10.6406 0 14.1875 3.54688 14.1875 7.09375ZM163.156 28.375C159.166 28.375 156.062 25.2715 156.062 21.2812C156.062 17.7344 159.166 14.1875 163.156 14.1875H205.719C209.266 14.1875 212.812 17.7344 212.812 21.2812V63.8438C212.812 67.834 209.266 70.9375 205.719 70.9375C201.729 70.9375 198.625 67.834 198.625 63.8438V38.5723L132.564 104.633C129.904 107.293 125.027 107.293 122.367 104.633L92.2188 74.041L54.5332 111.727C51.873 114.387 46.9961 114.387 44.3359 111.727C41.6758 109.066 41.6758 104.189 44.3359 101.529L86.8984 58.9668C88.2285 57.6367 90.002 56.75 92.2188 56.75C93.9922 56.75 95.7656 57.6367 97.0957 58.9668L127.688 89.5586L188.428 28.375H163.156ZM163.156 156.062C159.166 156.062 156.062 152.959 156.062 148.969C156.062 145.422 159.166 141.875 163.156 141.875H188.428L157.836 111.727L168.033 101.529L198.625 132.121V106.406C198.625 102.859 201.729 99.3125 205.719 99.3125C209.266 99.3125 212.812 102.859 212.812 106.406V148.969C212.812 152.959 209.266 156.062 205.719 156.062H163.156Z" fill="#B4A5C8"/>
</svg>
